# Blender v2.81 (sub 16) OBJ File: ''
# www.blender.org
mtllib cube.mtl
o Cube
v 1.000000 1.000000 -1.000000
v 1.000000 -1.000000 -1.000000
v 1.000000 1.000000 1.000000
v 1.000000 -1.000000 1.000000
v -1.000000 1.000000 -1.000000
v -1.000000 -1.000000 -1.000000
v -1.000000 1.000000 1.000000
v -1.000000 -1.000000 1.000000
vt 0.625000 0.500000
vt 0.875000 0.500000
vt 0.875000 0.750000
vt 0.625000 0.750000
vt 0.375000 0.000000
vt 0.625000 0.000000
vt 0.625000 0.250000
vt 0.375000 0.250000
vt 0.125000 0.500000
vt 0.375000 0.500000
vt 0.375000 0.750000
vt 0.125000 0.750000
vt 0.625000 1.000000
vt 0.375000 1.000000
vn 0.0000 1.0000 0.0000
vn -1.0000 0.0000 0.0000
vn 0.0000 -1.0000 0.0000
vn 0.0000 0.0000 -1.0000
vn 0.0000 0.0000 1.0000
vn 1.0000 0.0000 0.0000
usemtl Material
s off
f 1/1/1 5/2/1 7/3/1 3/4/1
f 8/5/2 7/6/2 5/7/2 6/8/2
f 6/9/3 2/10/3 4/11/3 8/12/3
f 6/8/4 5/7/4 1/1/4 2/10/4
usemtl (null)
f 4/11/5 3/4/5 7/13/5 8/14/5
f 2/10/6 1/1/6 3/4/6 4/11/6
o Cube.001
v 2.328405 0.687157 -2.495228
v 2.328405 -1.312843 -2.495228
v 2.328405 0.687157 -0.495228
v 2.328405 -1.312843 -0.495228
v 0.328405 0.687157 -2.495228
v 0.328405 -1.312843 -2.495228
v 0.328405 0.687157 -0.495228
v 0.328405 -1.312843 -0.495228
vt 0.625000 0.500000
vt 0.875000 0.500000
vt 0.875000 0.750000
vt 0.625000 0.750000
vt 0.375000 0.000000
vt 0.625000 0.000000
vt 0.625000 0.250000
vt 0.375000 0.250000
vt 0.125000 0.500000
vt 0.375000 0.500000
vt 0.375000 0.750000
vt 0.125000 0.750000
vt 0.625000 1.000000
vt 0.375000 1.000000
vn 0.0000 1.0000 0.0000
vn -1.0000 0.0000 0.0000
vn 0.0000 -1.0000 0.0000
vn 0.0000 0.0000 -1.0000
vn 0.0000 0.0000 1.0000
vn 1.0000 0.0000 0.0000
usemtl Material
s off
f 9/15/7 13/16/7 15/17/7 11/18/7
f 16/19/8 15/20/8 13/21/8 14/22/8
f 14/23/9 10/24/9 12/25/9 16/26/9
f 14/22/10 13/21/10 9/15/10 10/24/10
usemtl (null)
f 12/25/11 11/18/11 15/27/11 16/28/11
f 10/24/12 9/15/12 11/18/12 12/25/12
